<?xml version="1.0" encoding="UTF-8"?>
<svg xmlns="http://www.w3.org/2000/svg" xmlns:xlink="http://www.w3.org/1999/xlink" width="50pt" height="50pt" viewBox="0 0 50 50" version="1.1">
<defs>
<linearGradient id="linear0" gradientUnits="userSpaceOnUse" x1="2.638" y1="482.697" x2="488.155" y2="-2.82" gradientTransform="matrix(0.0976562,0,0,0.0976562,0,0)">
<stop offset="0" style="stop-color:rgb(0%,24.705882%,54.117647%);stop-opacity:1;"/>
<stop offset="0.518" style="stop-color:rgb(0%,84.313725%,87.45098%);stop-opacity:1;"/>
<stop offset="1" style="stop-color:rgb(0%,42.745098%,94.117647%);stop-opacity:1;"/>
</linearGradient>
<linearGradient id="linear1" gradientUnits="userSpaceOnUse" x1="-12.029" y1="468.029" x2="473.487" y2="-17.487" gradientTransform="matrix(0.0976562,0,0,0.0976562,0,0)">
<stop offset="0" style="stop-color:rgb(0%,24.705882%,54.117647%);stop-opacity:1;"/>
<stop offset="0.518" style="stop-color:rgb(0%,84.313725%,87.45098%);stop-opacity:1;"/>
<stop offset="1" style="stop-color:rgb(0%,42.745098%,94.117647%);stop-opacity:1;"/>
</linearGradient>
<linearGradient id="linear2" gradientUnits="userSpaceOnUse" x1="31.971" y1="512.029" x2="517.487" y2="26.513" gradientTransform="matrix(0.0976562,0,0,0.0976562,0,0)">
<stop offset="0" style="stop-color:rgb(0%,24.705882%,54.117647%);stop-opacity:1;"/>
<stop offset="0.518" style="stop-color:rgb(0%,84.313725%,87.45098%);stop-opacity:1;"/>
<stop offset="1" style="stop-color:rgb(0%,42.745098%,94.117647%);stop-opacity:1;"/>
</linearGradient>
<linearGradient id="linear3" gradientUnits="userSpaceOnUse" x1="43.971" y1="524.029" x2="529.487" y2="38.513" gradientTransform="matrix(0.0976562,0,0,0.0976562,0,0)">
<stop offset="0" style="stop-color:rgb(0%,24.705882%,54.117647%);stop-opacity:1;"/>
<stop offset="0.518" style="stop-color:rgb(0%,84.313725%,87.45098%);stop-opacity:1;"/>
<stop offset="1" style="stop-color:rgb(0%,42.745098%,94.117647%);stop-opacity:1;"/>
</linearGradient>
<linearGradient id="linear4" gradientUnits="userSpaceOnUse" x1="1.971" y1="482.029" x2="487.487" y2="-3.488" gradientTransform="matrix(0.0976562,0,0,0.0976562,0,0)">
<stop offset="0" style="stop-color:rgb(0%,24.705882%,54.117647%);stop-opacity:1;"/>
<stop offset="0.518" style="stop-color:rgb(0%,84.313725%,87.45098%);stop-opacity:1;"/>
<stop offset="1" style="stop-color:rgb(0%,42.745098%,94.117647%);stop-opacity:1;"/>
</linearGradient>
</defs>
<g id="surface1">
<path style=" stroke:none;fill-rule:nonzero;fill:url(#linear0);" d="M 16.40625 25.78125 L 32.8125 25.78125 C 33.09375 25.78125 33.351562 25.628906 33.492188 25.382812 C 33.632812 25.140625 33.625 24.839844 33.484375 24.597656 L 28.796875 16.785156 C 28.652344 16.550781 28.398438 16.40625 28.125 16.40625 C 27.851562 16.40625 27.597656 16.550781 27.453125 16.785156 L 26.5625 18.273438 L 23.71875 13.53125 C 23.574219 13.296875 23.320312 13.152344 23.046875 13.152344 C 22.773438 13.152344 22.519531 13.296875 22.375 13.53125 L 15.734375 24.597656 C 15.59375 24.839844 15.585938 25.140625 15.726562 25.382812 C 15.867188 25.628906 16.125 25.78125 16.40625 25.78125 Z M 28.125 18.707031 L 31.433594 24.21875 L 30.128906 24.21875 L 27.472656 19.792969 Z M 23.046875 15.453125 L 28.308594 24.21875 L 17.785156 24.21875 Z M 23.046875 15.453125 "/>
<path style=" stroke:none;fill-rule:nonzero;fill:url(#linear1);" d="M 31.640625 15.625 C 33.148438 15.625 34.375 14.398438 34.375 12.890625 C 34.375 11.382812 33.148438 10.15625 31.640625 10.15625 C 30.132812 10.15625 28.90625 11.382812 28.90625 12.890625 C 28.90625 14.398438 30.132812 15.625 31.640625 15.625 Z M 31.640625 11.71875 C 32.289062 11.71875 32.8125 12.242188 32.8125 12.890625 C 32.8125 13.539062 32.289062 14.0625 31.640625 14.0625 C 30.992188 14.0625 30.46875 13.539062 30.46875 12.890625 C 30.46875 12.242188 30.992188 11.71875 31.640625 11.71875 Z M 31.640625 11.71875 "/>
<path style=" stroke:none;fill-rule:nonzero;fill:url(#linear2);" d="M 34.375 27.34375 L 15.625 27.34375 C 15.195312 27.34375 14.84375 27.695312 14.84375 28.125 C 14.84375 28.554688 15.195312 28.90625 15.625 28.90625 L 34.375 28.90625 C 34.804688 28.90625 35.15625 28.554688 35.15625 28.125 C 35.15625 27.695312 34.804688 27.34375 34.375 27.34375 Z M 34.375 27.34375 "/>
<path style=" stroke:none;fill-rule:nonzero;fill:url(#linear3);" d="M 30.46875 29.6875 L 19.53125 29.6875 C 19.101562 29.6875 18.75 30.039062 18.75 30.46875 C 18.75 30.898438 19.101562 31.25 19.53125 31.25 L 30.46875 31.25 C 30.898438 31.25 31.25 30.898438 31.25 30.46875 C 31.25 30.039062 30.898438 29.6875 30.46875 29.6875 Z M 30.46875 29.6875 "/>
<path style=" stroke:none;fill-rule:nonzero;fill:url(#linear4);" d="M 48.578125 5.480469 L 30.597656 2.355469 C 30.371094 2.316406 30.140625 2.382812 29.964844 2.53125 C 29.789062 2.679688 29.6875 2.898438 29.6875 3.125 C 29.6875 5.714844 27.589844 7.8125 25 7.8125 C 22.410156 7.8125 20.3125 5.714844 20.3125 3.125 C 20.3125 2.894531 20.210938 2.679688 20.035156 2.53125 C 19.859375 2.382812 19.628906 2.316406 19.402344 2.355469 L 1.421875 5.480469 C 1.050781 5.546875 0.78125 5.871094 0.78125 6.25 L 0.78125 16.40625 C 0.78125 16.835938 1.132812 17.1875 1.5625 17.1875 L 9.375 17.1875 L 9.375 46.875 C 9.375 47.304688 9.726562 47.65625 10.15625 47.65625 L 39.84375 47.65625 C 40.273438 47.65625 40.625 47.304688 40.625 46.875 L 40.625 17.1875 L 48.4375 17.1875 C 48.867188 17.1875 49.21875 16.835938 49.21875 16.40625 L 49.21875 6.25 C 49.21875 5.871094 48.949219 5.546875 48.578125 5.480469 Z M 2.34375 15.625 L 2.34375 6.902344 L 9.375 5.625 L 9.375 15.625 Z M 39.0625 46.09375 L 10.9375 46.09375 L 10.9375 5.351562 L 18.816406 4.035156 C 18.824219 4.089844 18.832031 4.140625 18.84375 4.195312 C 19.367188 7.21875 22.011719 9.414062 25.078125 9.375 C 28.148438 9.335938 30.738281 7.074219 31.1875 4.035156 L 39.0625 5.351562 Z M 47.65625 15.625 L 40.625 15.625 L 40.625 5.625 L 47.65625 6.902344 Z M 47.65625 15.625 "/>
</g>
</svg>
