<?xml version="1.0"?>
<svg version="1.1" xmlns="http://www.w3.org/2000/svg" width="300" height="50" style=""><path fill="#369feb" d="M18.45,39.55l0-14.1l-2.25-0.9l0-2.55l6.9-0.15l2.85,0c6,0,9.54,3.54,9.54,10.29s-3.9,10.86-9.99,10.86l-9.3,0l0-2.55z M23.1,39.4l2.49,0c2.91,0,4.86-1.71,4.86-7.11c0-5.04-1.71-6.84-4.65-6.84l-2.7,0l0,13.95z M46.4253,26.8l0.27,2.07s2.16-2.37,4.17-2.37c1.65,0,2.79,0.54,2.79,0.54l-0.24,5.76l-2.7,0l-0.45-2.55c-1.74,0-3.24,1.68-3.24,1.68l0,7.92l3,0.75l0,2.4l-9.9,0l0-2.4l2.4-0.75l0-9.75l-2.4-0.75l0-2.4z M71.5806,35.89l-9.96,0c0.18,2.4,1.56,3.81,3.63,3.81c2.49,0,5.04-1.41,5.04-1.41l1.29,2.49s-3,2.52-6.84,2.52c-5.16,0-7.8-3-7.8-8.1c0-5.25,2.97-8.7,8.01-8.7c4.47,0,6.81,2.76,6.81,7.05c0,1.14-0.18,2.25-0.18,2.34z M61.6806,33.1l5.43,0c0-1.71-0.72-3-2.46-3c-1.68,0-2.73,1.23-2.97,3z M86.1759,43l-0.54-1.95s-2.31,2.25-4.86,2.25c-2.91,0-4.68-1.71-4.68-4.71c0-3.54,2.67-4.95,7.23-4.95l2.1,0l0-1.65c0-1.53-0.81-2.19-2.31-2.19c-1.53,0-2.64,0.45-2.64,0.45l-0.45,1.89l-2.7,0l-0.21-4.44s3.63-1.2,6.51-1.2c4.56,0,6.3,1.59,6.3,5.94l0,7.41l2.25,0.54l0,2.4z M85.4259,36.19l-1.71,0c-2.34,0-3.27,0.6-3.27,1.95c0,1.14,0.63,1.8,1.77,1.8c1.59,0,3.21-1.74,3.21-1.74l0-2.01z M124.0512,40.6l0,2.4l-8.13,0l0-2.4l1.59-0.75l0-7.14c0-1.65-0.48-2.46-1.74-2.46c-1.95,0-3.33,1.56-3.33,1.56l0,8.04l1.56,0.75l0,2.4l-7.62,0l0-2.4l1.56-0.75l0-7.14c0-1.65-0.42-2.46-1.71-2.46c-1.95,0-3.36,1.56-3.36,1.56l0,8.04l1.59,0.75l0,2.4l-8.4,0l0-2.4l2.31-0.75l0-9.75l-2.28-0.75l0-2.4l6.27-0.15l0.21,2.13s2.61-2.43,5.25-2.43c2.13,0,3.45,0.99,4.14,2.58c0.51-0.51,2.76-2.58,5.43-2.58c3.15,0,4.62,2.04,4.62,5.4l0,7.95z"/><path fill="#d92ef0" d="M148.5965,43.3l-15.51-6.54l0-3.6l15.51-6.57l0,3.9l-10.65,4.5l10.65,4.35l0,3.96z M162.0671,43l0-2.55l2.25-0.9l0-14.1l-2.25-0.9l0-2.55l6.9-0.15l2.28,0c4.92,0,7.8,2.04,7.8,6.12c0,2.82-1.35,4.65-3.39,5.67c0.33,0.39,0.78,0.96,1.26,1.95l2.01,4.11l2.04,0.75l0,2.55l-5.55,0l-2.52-5.55c-1.02-2.28-1.29-2.76-2.88-2.76l-1.05,0l0,4.86l2.16,0.9l0,2.55l-9.06,0z M168.9671,31.54l1.71,0c2.37,0,3.75-1.14,3.75-3.15c0-1.71-1.14-2.94-3-2.94l-2.46,0l0,6.09z M199.0424,35.89l-9.96,0c0.18,2.4,1.56,3.81,3.63,3.81c2.49,0,5.04-1.41,5.04-1.41l1.29,2.49s-3,2.52-6.84,2.52c-5.16,0-7.8-3-7.8-8.1c0-5.25,2.97-8.7,8.01-8.7c4.47,0,6.81,2.76,6.81,7.05c0,1.14-0.18,2.25-0.18,2.34z M189.1424,33.1l5.43,0c0-1.71-0.72-3-2.46-3c-1.68,0-2.73,1.23-2.97,3z M213.6377,43l-0.54-1.95s-2.31,2.25-4.86,2.25c-2.91,0-4.68-1.71-4.68-4.71c0-3.54,2.67-4.95,7.23-4.95l2.1,0l0-1.65c0-1.53-0.81-2.19-2.31-2.19c-1.53,0-2.64,0.45-2.64,0.45l-0.45,1.89l-2.7,0l-0.21-4.44s3.63-1.2,6.51-1.2c4.56,0,6.3,1.59,6.3,5.94l0,7.41l2.25,0.54l0,2.4z M212.8877,36.19l-1.71,0c-2.34,0-3.27,0.6-3.27,1.95c0,1.14,0.63,1.8,1.77,1.8c1.59,0,3.21-1.74,3.21-1.74l0-2.01z M230.003,39.85l2.7,0.75l0,2.4l-9.63,0l0-2.4l2.4-0.75l0-16.86l-2.4-0.6l0-2.4l6.93-0.24l0,20.1z M237.8483,21.85c0-1.71,1.23-2.7,2.58-2.7c1.56,0,2.52,0.81,2.52,2.7c0,1.77-1.29,2.73-2.52,2.73c-1.62,0-2.58-0.96-2.58-2.73z M242.8883,39.85l2.1,0.75l0,2.4l-9,0l0-2.4l2.4-0.75l0-9.75l-2.4-0.75l0-2.4l6.9-0.15l0,13.05z M259.6736,39.16l1.08,2.28c-1.47,1.08-3.15,1.86-5.1,1.86c-3.45,0-4.44-2.4-4.44-5.85l0-6.9l-2.79,0l0-2.91l2.79-0.39l0-4.14l4.5-0.81l0,4.95l4.2,0l0,3.3l-4.2,0l0,6.6c0,1.92,0.33,2.7,1.59,2.7c0.81,0,1.98-0.48,2.37-0.69z M263.2889,29.35l0-2.4l8.01-0.15l0,2.55l-1.68,0.3l2.67,8.4l2.55-8.31l-1.74-0.39l0-2.4l8.07-0.15l0,2.55l-1.86,0.39l-4.41,12.3c-1.44,3.96-3.39,8.16-8.16,8.16c-1.02,0-2.91-0.24-2.91-0.24l0.42-3.21l1.95,0c2.4,0,3.51-2.55,4.02-3.72l-5.34-13.2z"/></svg>
