<svg height="512" viewBox="0 0 512 512" width="512" xmlns="http://www.w3.org/2000/svg" xmlns:xlink="http://www.w3.org/1999/xlink"><linearGradient id="linear-gradient" gradientUnits="userSpaceOnUse" x1="50.925" x2="547.278" y1="519.689" y2="23.336"><stop offset="0" stop-color="#003f8a"/><stop offset=".518" stop-color="#00d7df"/><stop offset="1" stop-color="#006df0"/></linearGradient><linearGradient id="linear-gradient-2" x1="64.285" x2="560.639" xlink:href="#linear-gradient" y1="533.05" y2="36.696"/><linearGradient id="linear-gradient-3" x1="49.618" x2="545.971" xlink:href="#linear-gradient" y1="518.382" y2="22.029"/><linearGradient id="linear-gradient-4" x1="93.618" x2="589.971" xlink:href="#linear-gradient" y1="562.382" y2="66.029"/><linearGradient id="linear-gradient-5" x1="97.618" x2="593.971" xlink:href="#linear-gradient" y1="566.382" y2="70.029"/><linearGradient id="linear-gradient-6" x1="147.618" x2="643.971" xlink:href="#linear-gradient" y1="616.382" y2="120.029"/><linearGradient id="linear-gradient-7" x1="-84.382" x2="411.971" xlink:href="#linear-gradient" y1="384.382" y2="-111.971"/><linearGradient id="linear-gradient-8" x1="-56.382" x2="439.971" xlink:href="#linear-gradient" y1="412.382" y2="-83.971"/><g id="Eco_bag" data-name="Eco bag"><path d="m480 168h-96v-120a8 8 0 0 0 -3.562-6.656l-48-32a7.975 7.975 0 0 0 -4.438-1.328v-.016h-144v.016a7.975 7.975 0 0 0 -4.438 1.328l-48 32a8 8 0 0 0 -3.562 6.656v120h-96a8 8 0 0 0 -8 8v288a40.045 40.045 0 0 0 40 40h384a40.045 40.045 0 0 0 40-40v-288a8 8 0 0 0 -8-8zm-144-137.052 32 21.333v115.719h-32zm-144 137.052v-96h128v96zm128-112h-128v-32h128zm-176-3.719 32-21.333v137.052h-32zm328 411.719a24.028 24.028 0 0 1 -24 24h-384a24.028 24.028 0 0 1 -24-24v-280h432z" fill="url(#linear-gradient)"/><path d="m168 376h168a8 8 0 0 0 6.86-12.116l-48-80a8 8 0 0 0 -13.72 0l-9.14 15.236-29.14-48.566a8 8 0 0 0 -13.72 0l-68 113.33a8 8 0 0 0 6.86 12.116zm120-72.45 33.87 56.45h-13.34l-27.2-45.332zm-52-33.331 53.87 89.781h-107.74z" fill="url(#linear-gradient-2)"/><path d="m324 216a28 28 0 1 0 28 28 28.032 28.032 0 0 0 -28-28zm0 40a12 12 0 1 1 12-12 12.013 12.013 0 0 1 -12 12z" fill="url(#linear-gradient-3)"/><path d="m344 392h-176a8 8 0 0 0 0 16h176a8 8 0 0 0 0-16z" fill="url(#linear-gradient-4)"/><path d="m312 416h-144a8 8 0 0 0 0 16h144a8 8 0 0 0 0-16z" fill="url(#linear-gradient-5)"/><path d="m344 416h-8a8 8 0 0 0 0 16h8a8 8 0 0 0 0-16z" fill="url(#linear-gradient-6)"/><path d="m120 200h-56a8 8 0 0 0 0 16h56a8 8 0 0 0 0-16z" fill="url(#linear-gradient-7)"/><path d="m152 200h-8a8 8 0 0 0 0 16h8a8 8 0 0 0 0-16z" fill="url(#linear-gradient-8)"/></g></svg>